# xmcd
#
# Track frame offsets: 
#        183
#        11708
#        33358
#        53145
#        67633
#        80970
#        93533
#        104083
#        115733
#        144270
#        155633
#        184270
#        197908
#        215208
#        226095
#        256545
#        269008
#        279658
#        293533
#        305020
#
# Disc length: 4237 seconds
#
# Revision: 1
# Processed by: cddbd v1.4PL0 Copyright (c) Steve Scherf et al.
# Submitted via: ExactAudioCopy v0.95a3
#
DISCID=28108b14
DTITLE=Various Artist - The Blues Revival CD2
DYEAR=1900
DGENRE=
TTITLE0=John Lee Hooker - Boom Boom
TTITLE1="Big Mama" Thornton - Ball And Chain
TTITLE2=Muddy Waters - Where´s My Woman Been
TTITLE3=Little Milton - Blues In The Night
TTITLE4=Howlin' Wolf - Tell Me
TTITLE5=Mitty Collier - Hallelujah
TTITLE6=Sonny Boy Williamson - Let Your Conscience Be Your Guide
TTITLE7=Elmore James - Talk To Me Baby
TTITLE8=Johnny "Guitar" Watson - When Did You Leave Heaven
TTITLE9=Muddy Waters - Crawlin´Kingsnake
TTITLE10=Clarence "Gatemouth" Brown - Please Mr.Nixon
TTITLE11=Lowell Fulson - Lovin´ You
TTITLE12=John Lee Hooker - Blues Before Sunrise
TTITLE13=Little Walter - Just Your fool
TTITLE14=B.B. King - Outside Help
TTITLE15=Etta James - If I Can´t Have You
TTITLE16=Howlin' Wolf - Who´s Been Talkin´
TTITLE17=Little Milton - I´m Gonna Move To The Outskirts Of Town
TTITLE18=Sonny Boy Williamson - Born Blind
TTITLE19=Lowell Fulson - Rollin´ Blues
EXTD=
EXTT0=
EXTT1=
EXTT2=
EXTT3=
EXTT4=
EXTT5=
EXTT6=
EXTT7=
EXTT8=
EXTT9=
EXTT10=
EXTT11=
EXTT12=
EXTT13=
EXTT14=
EXTT15=
EXTT16=
EXTT17=
EXTT18=
EXTT19=
PLAYORDER=
